<mxfile host="app.diagrams.net" agent="Mozilla/5.0 (Macintosh; Intel Mac OS X 10.15; rv:136.0) Gecko/20100101 Firefox/136.0" version="26.2.4">
  <diagram name="Page-1" id="meRRbQHxnOJeEuSpjpeU">
    <mxGraphModel dx="742" dy="482" grid="1" gridSize="10" guides="1" tooltips="1" connect="1" arrows="1" fold="1" page="1" pageScale="1" pageWidth="1100" pageHeight="850" math="0" shadow="0">
      <root>
        <mxCell id="0" />
        <mxCell id="1" parent="0" />
        <mxCell id="sURorWUKVhcub2XPmH3s-12" value="" style="group;fontSize=15;" vertex="1" connectable="0" parent="1">
          <mxGeometry x="160" y="110" width="500" height="280" as="geometry" />
        </mxCell>
        <mxCell id="sURorWUKVhcub2XPmH3s-2" value="&lt;font style=&quot;font-size: 18px;&quot;&gt;&lt;b&gt;User Story&lt;/b&gt;&lt;/font&gt;" style="rounded=0;whiteSpace=wrap;html=1;gradientColor=none;fillColor=#9999FF;" vertex="1" parent="sURorWUKVhcub2XPmH3s-12">
          <mxGeometry width="500" height="40" as="geometry" />
        </mxCell>
        <mxCell id="sURorWUKVhcub2XPmH3s-3" value="&lt;b&gt;As A:&lt;/b&gt;" style="rounded=0;whiteSpace=wrap;html=1;fillColor=#CCCCFF;" vertex="1" parent="sURorWUKVhcub2XPmH3s-12">
          <mxGeometry y="40" width="100" height="80" as="geometry" />
        </mxCell>
        <mxCell id="sURorWUKVhcub2XPmH3s-4" value="&lt;b&gt;I Want:&lt;/b&gt;" style="rounded=0;whiteSpace=wrap;html=1;fillColor=#CCCCFF;" vertex="1" parent="sURorWUKVhcub2XPmH3s-12">
          <mxGeometry y="120" width="100" height="80" as="geometry" />
        </mxCell>
        <mxCell id="sURorWUKVhcub2XPmH3s-5" value="&lt;b&gt;So That:&lt;/b&gt;" style="rounded=0;whiteSpace=wrap;html=1;fillColor=#CCCCFF;" vertex="1" parent="sURorWUKVhcub2XPmH3s-12">
          <mxGeometry y="200" width="100" height="80" as="geometry" />
        </mxCell>
        <mxCell id="sURorWUKVhcub2XPmH3s-6" value="&lt;div&gt;Who is the customer?&lt;/div&gt;&lt;div&gt;How do they think?&lt;/div&gt;" style="rounded=0;whiteSpace=wrap;html=1;" vertex="1" parent="sURorWUKVhcub2XPmH3s-12">
          <mxGeometry x="300" y="40" width="200" height="80" as="geometry" />
        </mxCell>
        <mxCell id="sURorWUKVhcub2XPmH3s-7" value="{Role Name}" style="rounded=0;whiteSpace=wrap;html=1;" vertex="1" parent="sURorWUKVhcub2XPmH3s-12">
          <mxGeometry x="100" y="40" width="200" height="80" as="geometry" />
        </mxCell>
        <mxCell id="sURorWUKVhcub2XPmH3s-8" value="{Some Outcome}" style="rounded=0;whiteSpace=wrap;html=1;" vertex="1" parent="sURorWUKVhcub2XPmH3s-12">
          <mxGeometry x="100" y="200" width="200" height="80" as="geometry" />
        </mxCell>
        <mxCell id="sURorWUKVhcub2XPmH3s-9" value="{Some Desire}" style="rounded=0;whiteSpace=wrap;html=1;" vertex="1" parent="sURorWUKVhcub2XPmH3s-12">
          <mxGeometry x="100" y="120" width="200" height="80" as="geometry" />
        </mxCell>
        <mxCell id="sURorWUKVhcub2XPmH3s-10" value="&lt;div&gt;What is the value?&lt;/div&gt;&lt;div&gt;What is the desired change?&lt;/div&gt;" style="rounded=0;whiteSpace=wrap;html=1;" vertex="1" parent="sURorWUKVhcub2XPmH3s-12">
          <mxGeometry x="300" y="200" width="200" height="80" as="geometry" />
        </mxCell>
        <mxCell id="sURorWUKVhcub2XPmH3s-11" value="&lt;div&gt;What is the problem?&lt;/div&gt;&lt;div&gt;What is the customer&#39;s goal?&lt;/div&gt;" style="rounded=0;whiteSpace=wrap;html=1;" vertex="1" parent="sURorWUKVhcub2XPmH3s-12">
          <mxGeometry x="300" y="120" width="200" height="80" as="geometry" />
        </mxCell>
      </root>
    </mxGraphModel>
  </diagram>
</mxfile>
